<svg xmlns="http://www.w3.org/2000/svg" viewBox="0 0 512 512"><defs><style>.cls-1{fill:#272727;}.cls-2{fill:#ff5b01;}.cls-3{fill:#fff;}</style></defs><g id="Layer_2" data-name="Layer 2"><g id="Layer_1-2" data-name="Layer 1"><rect class="cls-1" width="512" height="512" rx="145.37"/><path class="cls-2" d="M76.53,219.49c15.07-4.41,29.8-10,44.76-14.81,6.79-2.2,10.43-6.9,12.36-14.22-1.77.69-3.18,1.24-4.59,1.76C93.34,205.44,56.7,213.6,18.35,211.36A129.26,129.26,0,0,1,0,209v32.09a43.68,43.68,0,0,1,5.35-1.9C29.06,232.58,52.91,226.42,76.53,219.49Z"/><path class="cls-3" d="M104.69,433.15c-2.48,41.59,38.94,71.39,73.71,76.79C144.18,493.75,119,468.9,104.69,433.15Z"/><path class="cls-3" d="M512,365l-.36.13c-41.53,14.59-84,17.51-127.39,10.65-24.33-3.85-47.51-11.67-70.69-19.65-21.47-7.39-43.1-14.31-64.62-21.53a5.38,5.38,0,0,1-3-2.58c-9.43-24-12.87-48.65-5.37-73.71C245,243.42,251,229,256.49,214.38c7.64-20.44,12.29-41.22,8.58-63.23-9.72-57.79-69.66-90-121.26-60.45-16.82,9.63-29.27,23.22-34.92,42.17-6.3,21.14,12.16,44.87,34.68,41.36a27.87,27.87,0,0,1,4.29,0c1.62,17.14-.08,33.06-11.48,47.25,27.32,4.23,50.52-4.26,72.16-19.24a14.63,14.63,0,0,1-1.59,4.14c-8,14.08-19.75,24.31-33.68,32.29a11.76,11.76,0,0,0-4.53,4.54c-8.66,17.07-19.78,32.4-32,47-13.06,15.59-26.32,31.05-38.51,47.3-11.78,15.71-18.43,34-22.82,53.18a176.3,176.3,0,0,1,31.32-31.34,217.54,217.54,0,0,1,38.85-23.67c0,1.63.07,2.22,0,2.78-4.23,28.18-.22,55.38,10.11,81.72,11.43,29.17,29.28,53.7,55,71.88l.36.26A109.25,109.25,0,0,0,273.9,512h92.69a144.81,144.81,0,0,0,15.1-.8,68.3,68.3,0,0,0,16.86-4c2.18-.81,4.34-1.65,6.5-2.52,40.89-16.54,73.11-43.22,94.82-82,.74-1.33,1.33-2.74,2.19-4.52-20.65,8.11-41.14,13.24-62.08,12.66,15.8-9.77,32.16-19.14,47.7-29.72a121.3,121.3,0,0,0,23.68-21.2c.41-4.4.64-8.85.64-13.35ZM159.77,145.67a14,14,0,0,1-13.88-13.86,14.53,14.53,0,0,1,15-14.31c7.62.2,14.23,6.93,14.09,14.35S167.69,145.73,159.77,145.67ZM392.13,470.86c-39.25,27.17-81.61,34.31-126.84,18-24.26-8.72-42.59-25-53.59-48.73-4.51-9.76-5.81-20.07-4.25-32.12A117.62,117.62,0,0,0,237,442.71c19.14,15.48,41.09,24.6,65.32,28.36,33.81,5.24,66.52-.22,98.74-10.28a6.72,6.72,0,0,1,4.17-.18C400.86,464,396.68,467.72,392.13,470.86Zm35.16-59.71c-24.77,19.71-52.79,28.65-84.36,24.15-20.92-3-38.64-12.2-51.25-29.81-5.17-7.23-8.53-16-8.71-23.6,46.9,37.79,98.41,38.13,152.6,22.17C432.81,406.43,430.13,408.89,427.29,411.15Z"/><path class="cls-3" d="M56.2,180.16c5-2.27,9.88-4,14.13-6.71,1.66-1.08,3-4.75,2.44-6.7-.84-3.09-4.36-4.32-7.34-3.13a68,68,0,0,0-12.81,6.8c-1.33.91-2.27,4.06-1.74,5.61S54,178.56,56.2,180.16Z"/><path class="cls-2" d="M75.63,484.35c-23-34.07-31.17-71.28-21.7-111.63a141.81,141.81,0,0,1,26-53.84c11.27-14.73,23.8-28.5,35.27-43.09,8.43-10.72,16.06-22.07,24-33.18a37.3,37.3,0,0,0,2.38-4.67c-9.95-3.18-19.58-6.4-29.32-9.23-1.32-.38-3.29,1-4.82,1.86a214.39,214.39,0,0,1-69,24.18c-12.18,2-24.49,3.41-36.76.44-.54-.13-1.07-.34-1.61-.51V366.59A145.43,145.43,0,0,0,87.77,500.1,161.56,161.56,0,0,1,75.63,484.35Z"/><path class="cls-2" d="M77,143.93c1.75-1.39,2.81-4.1,3.44-6.41,7.45-27.31,22.16-49.63,46-65.07C176.84,39.92,248.3,53.05,279,113.86c16.05,31.77,16.26,64.57,5.16,97.76-4.56,13.64-9.87,27-15.14,40.42A90.93,90.93,0,0,0,266,311a4.91,4.91,0,0,0,2.7,2.91c24.31,8.25,48.7,16.26,73,24.54,35.89,12.23,72.56,18.09,110.47,13.88A265.84,265.84,0,0,0,512,338.09V145.41A145.41,145.41,0,0,0,366.59,0H145.41A145.41,145.41,0,0,0,0,145.41v20.34C28.28,167.91,54.33,162,77,143.93Z"/></g></g></svg>