<svg xmlns="http://www.w3.org/2000/svg" viewBox="0 0 277 277"><defs><style>.cls-1{fill:#fff;}.cls-2{fill:#272727;}</style></defs><g id="Layer_2" data-name="Layer 2"><g id="Layer_1-2" data-name="Layer 1"><path class="cls-1" d="M41.41,118.75c8.15-2.39,16.12-5.4,24.21-8,3.67-1.19,5.64-3.73,6.69-7.69l-2.49,1c-19.32,7.15-39.14,11.56-59.89,10.35A70.74,70.74,0,0,1,0,113.09v17.36a23.64,23.64,0,0,1,2.89-1C15.72,125.83,28.62,122.5,41.41,118.75Z"/><path class="cls-2" d="M56.64,234.34C55.3,256.84,77.7,273,96.52,275.89,78,267.13,64.4,253.68,56.64,234.34Z"/><path class="cls-2" d="M277,197.47l-.19.07c-22.47,7.9-45.47,9.48-68.93,5.77-13.16-2.09-25.7-6.32-38.24-10.63-11.61-4-23.31-7.74-35-11.65a2.87,2.87,0,0,1-1.63-1.4c-5.11-13-7-26.32-2.91-39.87,2.41-8.07,5.67-15.88,8.62-23.78,4.14-11,6.65-22.3,4.65-34.21-5.26-31.26-37.69-48.69-65.61-32.7C68.7,54.28,62,61.63,58.91,71.89,55.5,83.32,65.49,96.16,77.68,94.26a14.8,14.8,0,0,1,2.31,0c.88,9.28,0,17.89-6.21,25.57,14.78,2.28,27.34-2.31,39.05-10.41a8,8,0,0,1-.87,2.24c-4.35,7.62-10.68,13.15-18.22,17.47a6.41,6.41,0,0,0-2.45,2.45A134.25,134.25,0,0,1,74,157c-7.07,8.44-14.24,16.8-20.84,25.59-6.37,8.5-10,18.4-12.35,28.77a95.42,95.42,0,0,1,16.95-17,117.43,117.43,0,0,1,21-12.81,13,13,0,0,1,0,1.51c-2.28,15.24-.11,30,5.47,44.21,6.19,15.78,15.84,29.05,29.74,38.89l.19.14A59.16,59.16,0,0,0,148.19,277h50.14a78.81,78.81,0,0,0,8.17-.43,37,37,0,0,0,9.12-2.14c1.18-.44,2.35-.9,3.52-1.37,22.12-8.95,39.55-23.38,51.3-44.36.4-.72.72-1.49,1.18-2.45-11.17,4.39-22.26,7.16-33.58,6.85,8.54-5.28,17.4-10.35,25.8-16.07a66.09,66.09,0,0,0,12.82-11.48c.21-2.38.34-4.78.34-7.22ZM86.44,78.81a7.59,7.59,0,0,1-7.51-7.5A7.86,7.86,0,0,1,87,63.57a8,8,0,0,1,7.62,7.76C94.59,75.33,90.72,78.84,86.44,78.81ZM212.15,254.74c-21.23,14.7-44.16,18.57-68.62,9.77a49.24,49.24,0,0,1-29-26.37c-2.45-5.28-3.15-10.86-2.31-17.38a63.71,63.71,0,0,0,16,18.75,72.75,72.75,0,0,0,35.34,15.34c18.29,2.84,36-.11,53.42-5.55a3.61,3.61,0,0,1,2.26-.1C216.87,251.05,214.61,253,212.15,254.74Zm19-32.3c-13.4,10.66-28.56,15.5-45.64,13.06-11.32-1.61-20.91-6.59-27.73-16.13a24.14,24.14,0,0,1-4.71-12.76c25.38,20.44,53.24,20.63,82.56,12C234.16,219.88,232.71,221.22,231.17,222.44Z"/><path class="cls-2" d="M30.4,97.47a60.85,60.85,0,0,0,7.65-3.63,4.11,4.11,0,0,0,1.32-3.62,2.89,2.89,0,0,0-4-1.7,37.38,37.38,0,0,0-6.93,3.68,3.34,3.34,0,0,0-.94,3C27.83,96.11,29.21,96.6,30.4,97.47Z"/><path class="cls-1" d="M40.92,262c-12.47-18.43-16.87-38.56-11.74-60.39a76.67,76.67,0,0,1,14-29.13c6.1-8,12.88-15.42,19.08-23.32,4.56-5.79,8.69-11.93,13-17.94a21.11,21.11,0,0,0,1.29-2.53c-5.38-1.72-10.59-3.46-15.86-5-.72-.21-1.78.55-2.61,1a115.83,115.83,0,0,1-37.34,13.08c-6.59,1.08-13.25,1.85-19.89.24-.29-.07-.58-.18-.87-.27v60.54a78.69,78.69,0,0,0,47.48,72.23A87,87,0,0,1,40.92,262Z"/><path class="cls-1" d="M41.67,77.87a6.87,6.87,0,0,0,1.87-3.47c4-14.77,12-26.85,24.91-35.2C95.67,21.59,134.33,28.7,151,61.6c8.69,17.19,8.8,34.93,2.79,52.89-2.46,7.38-5.33,14.63-8.18,21.87a49.22,49.22,0,0,0-1.63,31.89,2.66,2.66,0,0,0,1.46,1.57c13.16,4.46,26.35,8.8,39.5,13.28,19.41,6.61,39.25,9.78,59.76,7.5A143.22,143.22,0,0,0,277,182.91V78.67A78.67,78.67,0,0,0,198.33,0H78.67A78.67,78.67,0,0,0,0,78.67v11C15.3,90.84,29.39,87.65,41.67,77.87Z"/></g></g></svg>